<?xml version="1.0" encoding="utf-8"?>
<!-- Generator: Adobe Illustrator 27.8.0, SVG Export Plug-In . SVG Version: 6.00 Build 0)  -->
<svg version="1.1" id="Layer_1" xmlns="http://www.w3.org/2000/svg" xmlns:xlink="http://www.w3.org/1999/xlink" x="0px" y="0px"
	 viewBox="0 0 1366 300" style="enable-background:new 0 0 1366 300;" xml:space="preserve">
<g>
	<path d="M54.4,154.6c-0.2-2-0.3-4-0.3-6.1c0-34.7,28.2-62.9,62.9-62.9c19.5,0,36.9,8.9,48.4,22.8c18.8-12.7,27.3-32.6,31.1-45.5
		c-20.9-19.5-48.9-31.4-79.7-31.4C52.3,31.6,0,83.9,0,148.4c0,19.7,4.9,38.3,13.5,54.6C20.3,186.7,32.5,167.4,54.4,154.6z"/>
	<path d="M214.1,83.8c-6.5,15.3-17.8,33-37.3,45.4c2,6.1,3,12.6,3,19.3c0,34.7-28.2,62.9-62.9,62.9c-24,0-44.9-13.5-55.5-33.3
		c-20.1,14.3-28.1,36.8-31,49c21.4,23.4,52.1,38.1,86.3,38.1c64.5,0,116.8-52.3,116.8-116.8C233.6,124.5,226.4,102.3,214.1,83.8z"/>
	<circle cx="117" cy="148.5" r="39.3"/>
</g>
<g>
	<path d="M292.8,236.3V62.5h48.8v173.8H292.8z M332.3,103V62.5h91.8V103H332.3z M332.3,167.5v-39.5h84.2v39.5H332.3z M332.3,236.3
		v-40.5h93.2v40.5H332.3z"/>
	<path d="M440.7,202.4l80.1-105.9h59.6L500,202.4H440.7z M440.7,236.3v-33.9l26.6-6.3h110.8v40.3H440.7z M444.6,102.8V62.5h135.7
		v33.9l-27.1,6.3H444.6z"/>
	<path d="M596.2,84.7V68.4h136.2v16.4H596.2z M655.2,236.3V73h18.1v163.3H655.2z"/>
	<path d="M762.9,236.3V68.4h17.8v167.9H762.9z M774.3,161.1V146h48.8c11.1,0,19.5-2.8,25.4-8.4c5.9-5.6,8.8-13.1,8.8-22.6
		c0-9.1-2.9-16.6-8.8-22.3c-5.9-5.8-14.3-8.7-25.4-8.7h-48.8V68.4h48.8c10.9,0,20.3,2,28.1,6c7.8,4,13.8,9.5,17.9,16.5
		c4.1,7,6.2,15,6.2,23.9c0,9.3-2.1,17.4-6.2,24.4c-4.1,7-10.1,12.4-17.9,16.2c-7.8,3.8-17.2,5.7-28.1,5.7H774.3z M864.4,236.3
		l-63-77.6l17.3-5.6l68.6,83.2H864.4z"/>
	<path d="M896.1,236.3L965,68.4h13.4l68.1,167.9h-19.3L967.9,87.9h7.1l-59.8,148.4H896.1z M927.6,192.6v-15.9h87.9v15.9H927.6z"/>
	<path d="M1075,236.3V68.4h17.8v167.9H1075z M1086,236.3v-16.6h49.3c13.2,0,24.8-2.9,34.9-8.7c10.1-5.8,18-13.7,23.7-23.9
		c5.7-10.2,8.5-21.8,8.5-35c0-13.2-2.8-24.8-8.5-34.9c-5.7-10.1-13.6-18-23.7-23.8c-10.1-5.8-21.7-8.7-34.9-8.7h-48.8V68.4h49.3
		c12.2,0,23.5,2.1,33.8,6.2c10.3,4.1,19.4,10,27.1,17.6c7.7,7.6,13.7,16.4,17.9,26.6c4.2,10.2,6.3,21.4,6.3,33.6
		c0,11.9-2.1,22.9-6.3,33.2c-4.2,10.3-10.2,19.2-17.8,26.7c-7.7,7.6-16.6,13.5-27,17.7c-10.3,4.2-21.5,6.3-33.6,6.3H1086z"/>
	<path d="M1255.4,236.3V68.4h17.8v167.9H1255.4z M1267.1,84.7V68.4h97.4v16.4H1267.1z M1267.1,158.2v-15.9h91v15.9H1267.1z
		 M1267.1,236.3V220h98.9v16.4H1267.1z"/>
</g>
</svg>
