<?xml version="1.0" encoding="utf-8"?>
<!-- Generator: Adobe Illustrator 27.8.0, SVG Export Plug-In . SVG Version: 6.00 Build 0)  -->
<svg version="1.1" id="Layer_1" xmlns="http://www.w3.org/2000/svg" xmlns:xlink="http://www.w3.org/1999/xlink" x="0px" y="0px"
	 viewBox="0 0 1366 300" style="enable-background:new 0 0 1366 300;" xml:space="preserve">
<g>
	<path d="M54.4,154.6c-0.2-2-0.3-4-0.3-6.1c0-34.7,28.2-62.9,62.9-62.9c19.5,0,36.9,8.9,48.4,22.8c18.8-12.7,27.3-32.6,31.1-45.5
		c-20.9-19.5-48.9-31.4-79.7-31.4C52.3,31.6,0,83.9,0,148.4c0,19.7,4.9,38.3,13.5,54.6C20.3,186.7,32.5,167.4,54.4,154.6z"/>
	<path d="M214.1,83.8c-6.5,15.3-17.8,33-37.3,45.4c2,6.1,3,12.6,3,19.3c0,34.7-28.2,62.9-62.9,62.9c-24,0-44.9-13.5-55.5-33.3
		c-20.1,14.3-28.1,36.8-31,49c21.4,23.4,52.1,38.1,86.3,38.1c64.5,0,116.8-52.3,116.8-116.8C233.6,124.5,226.4,102.3,214.1,83.8z"/>
	<circle cx="117" cy="148.5" r="39.3"/>
</g>
<g>
	<path d="M270.8,227.1V77.9h37.7v149.2H270.8z M300.7,173.6v-28h29.5c3.6,0,7-0.7,10-2.2c3-1.5,5.4-3.7,7.3-6.6
		c1.8-2.9,2.7-6.6,2.7-10.9c0-4.3-0.9-8-2.7-11c-1.8-3-4.2-5.3-7.3-6.7c-3-1.5-6.4-2.2-10-2.2h-29.5v-28h36c9.5,0,18.2,1.9,25.9,5.8
		c7.7,3.9,13.8,9.3,18.3,16.4c4.5,7.1,6.7,15.7,6.7,25.8c0,9.8-2.2,18.3-6.7,25.6c-4.5,7.2-10.6,12.7-18.3,16.5
		c-7.7,3.8-16.3,5.7-25.9,5.7H300.7z"/>
	<path d="M396.9,206.7l58.5-59.6c2.8-3.1,5.1-5.9,6.9-8.3c1.8-2.5,3.1-4.8,3.9-6.9c0.8-2.2,1.2-4.5,1.2-6.8c0-5.3-1.7-9.5-5.2-12.6
		c-3.4-3.1-8-4.6-13.6-4.6c-5.3,0-10.2,1.5-14.5,4.5c-4.4,3-8.8,8-13.5,15l-24.6-21.9c6-9.8,13.7-17.3,23.1-22.4
		c9.4-5.1,20.2-7.7,32.4-7.7c10.8,0,20.1,2,28,5.9c7.9,3.9,13.9,9.5,18.2,16.7c4.3,7.2,6.4,15.8,6.4,25.6c0,5.9-0.8,11.3-2.3,16.3
		c-1.5,5-4,9.9-7.4,14.7c-3.4,4.8-7.9,9.9-13.5,15.3l-38.7,37.7L396.9,206.7z M396.9,227.1v-20.4l31.4-10.9h79.1v31.4H396.9z"/>
	<path d="M526.7,227.1V77.9h37.7v149.2H526.7z M556.6,173.6v-28h29.5c3.6,0,7-0.7,10-2.2c3-1.5,5.4-3.7,7.3-6.6
		c1.8-2.9,2.7-6.6,2.7-10.9c0-4.3-0.9-8-2.7-11c-1.8-3-4.2-5.3-7.3-6.7c-3-1.5-6.4-2.2-10-2.2h-29.5v-28h36c9.5,0,18.2,1.9,25.9,5.8
		c7.7,3.9,13.8,9.3,18.3,16.4c4.5,7.1,6.7,15.7,6.7,25.8c0,9.8-2.2,18.3-6.7,25.6c-4.5,7.2-10.6,12.7-18.3,16.5
		c-7.7,3.8-16.3,5.7-25.9,5.7H556.6z"/>
	<path d="M656,96.4V82.3h117.4v14.1H656z M706.9,227.1V86.3h15.6v140.8H706.9z"/>
	<path d="M799.7,227.1V82.3h15.4v144.8H799.7z M809.6,162.3v-13h42.1c9.5,0,16.8-2.4,21.9-7.3c5.1-4.8,7.6-11.3,7.6-19.5
		c0-7.9-2.5-14.3-7.6-19.3c-5.1-5-12.3-7.5-21.9-7.5h-42.1V82.3h42.1c9.4,0,17.5,1.7,24.2,5.2c6.7,3.4,11.9,8.2,15.5,14.2
		c3.6,6,5.4,12.9,5.4,20.6c0,8-1.8,15-5.4,21c-3.6,6-8.7,10.7-15.5,14c-6.7,3.3-14.8,4.9-24.2,4.9H809.6z M887.2,227.1l-54.3-66.9
		l14.9-4.8l59.1,71.8H887.2z"/>
	<path d="M914.6,227.1L974,82.3h11.6l58.7,144.8h-16.6l-51.1-128h6.1l-51.6,128H914.6z M941.8,189.4v-13.7h75.8v13.7H941.8z"/>
	<path d="M1068.9,227.1V82.3h15.4v144.8H1068.9z M1078.3,227.1v-14.3h42.5c11.4,0,21.4-2.5,30.1-7.5c8.7-5,15.5-11.9,20.4-20.6
		c4.9-8.8,7.4-18.8,7.4-30.2c0-11.4-2.5-21.4-7.4-30.1c-4.9-8.7-11.7-15.5-20.4-20.5c-8.7-5-18.7-7.5-30.1-7.5h-42.1V82.3h42.5
		c10.5,0,20.2,1.8,29.1,5.4c8.9,3.6,16.7,8.6,23.4,15.2c6.7,6.5,11.8,14.2,15.5,22.9c3.6,8.8,5.5,18.4,5.5,28.9
		c0,10.2-1.8,19.8-5.5,28.6c-3.7,8.8-8.8,16.5-15.4,23c-6.6,6.5-14.3,11.6-23.3,15.3c-8.9,3.7-18.6,5.5-28.9,5.5H1078.3z"/>
	<path d="M1224.4,227.1V82.3h15.4v144.8H1224.4z M1234.5,96.4V82.3h84v14.1H1234.5z M1234.5,159.7v-13.7h78.5v13.7H1234.5z
		 M1234.5,227.1V213h85.2v14.1H1234.5z"/>
</g>
</svg>
